<?xml version="1.0" encoding="utf-8"?>
<!-- Generator: Adobe Illustrator 25.3.1, SVG Export Plug-In . SVG Version: 6.00 Build 0)  -->
<svg version="1.1" id="DilasDonuts_-_Logo" xmlns="http://www.w3.org/2000/svg" xmlns:xlink="http://www.w3.org/1999/xlink" x="0px"
	 y="0px" viewBox="0 0 292.32 226.36" style="enable-background:new 0 0 292.32 226.36;" xml:space="preserve">
<style type="text/css">
	.st0{fill:#F8CB88;}
	.st1{fill:#F18B96;}
	.st2{fill:#FFFFFF;}
	.st3{font-family:'PoiretOne-Regular';}
	.st4{font-size:16.649px;}
	.st5{fill:#50BFE8;}
	.st6{fill:#088E52;}
	.st7{fill:#F9E137;}
	.st8{fill:#E574AB;}
	.st9{fill:#DB191F;}
	.st10{fill:#DE5B11;}
</style>
<path class="st0" d="M88.2,162.27h-0.03c-10.33,0-18.71-8.38-18.71-18.71V84.05c0-10.33,8.38-18.71,18.71-18.71h0.03V162.27z"/>
<path class="st0" d="M136.68,113.8c0,26.77-21.72,48.48-48.51,48.48s-1.58-49.31-1.58-49.31S61.8,65.3,88.59,65.3
	S136.68,87.03,136.68,113.8z"/>
<path class="st1" d="M70.61,113.34c-0.19,3.67,1.14,5.11,3.22,11.5c1.15,3.53-4.65,5.63-0.16,12.16c3.45,5.03-0.86,9.34,2.69,14.4
	c3.11,4.44,9.16,1.01,12.55,5.88c1.88,2.71,5.03,3.22,8.49,2.83c3.87-0.44,5.19-4.4,10-9.51c6.15-6.54,10.55-0.23,15.5-6.47
	c3.9-4.91,1.11-8.64,6.07-14.81c3.44-4.29,5.45-4.5,6.33-7.77c1.13-4.2-1.21-9.06-5.36-18.08c-5.72-12.45-1.49-11.93-5.48-17.24
	c-5.99-7.99-9.15-2.48-17.24-11.42c-6.41-7.08-10.3-6.65-13.67-7.1c-0.53-0.07-5.06-0.46-7.81,2c-0.75,0.67-3.82,1.01-5.35,3.58
	c-2.2,3.72-6.32,7.15-7.17,7.84c-3.7,3.02-4.52,9.62-1.57,13.97c0.31,0.45,1.57,1.97,1.99,4.29c0,0,0.13,0.7,0.14,1.42
	C73.83,104.83,70.86,108.42,70.61,113.34z"/>
<g>
	<path class="st2" d="M95.92,126.76L95.92,126.76c-3.12,0-5.64-2.52-5.64-5.63v-17.9c0-3.11,2.52-5.63,5.63-5.63h0.01V126.76z"/>
	<path class="st2" d="M110.5,112.17c0,8.05-6.53,14.58-14.59,14.58s-0.47-14.84-0.47-14.84s-7.46-14.34,0.6-14.34
		S110.5,104.12,110.5,112.17z"/>
</g>
<text transform="matrix(1 0 0 1 143.7626 130.2431)" class="st1 st3 st4">ONUTS</text>
<text transform="matrix(1 0 0 1 146.7089 113.7636)" class="st3 st4">ILAS</text>
<circle id="k4_2_" class="st2" cx="70.21" cy="76.29" r="4.59"/>
<circle id="k3_2_" class="st2" cx="89.47" cy="64.77" r="4.59"/>
<circle id="k2_2_" class="st2" cx="84.3" cy="68.91" r="5.75"/>
<circle id="k1_2_" class="st2" cx="77.07" cy="73.91" r="5.61"/>
<rect id="r1_Ausbesserung_2_" x="76.19" y="66.5" class="st2" width="5" height="3.91"/>
<circle class="st0" cx="73.01" cy="70.4" r="1.35"/>
<circle class="st0" cx="80.79" cy="68.59" r="1.14"/>
<circle class="st0" cx="85.98" cy="63.37" r="1.35"/>
<circle class="st0" cx="78.16" cy="64.3" r="0.83"/>
<circle class="st0" cx="78.13" cy="74.36" r="0.83"/>
<circle class="st0" cx="71.49" cy="76.58" r="1.14"/>
<rect x="78.18" y="83.68" transform="matrix(0.946 0.3241 -0.3241 0.946 33.0847 -21.0153)" class="st2" width="2.91" height="10.27"/>
<rect x="91.77" y="86.28" transform="matrix(0.7682 0.6402 -0.6402 0.7682 80.1309 -38.4953)" class="st5" width="2.91" height="10.27"/>
<rect x="80.16" y="105.08" transform="matrix(0.7486 0.663 -0.663 0.7486 93.5935 -26.4067)" class="st6" width="2.91" height="10.27"/>
<rect x="95.39" y="74.38" transform="matrix(-0.6064 0.7952 -0.7952 -0.6064 218.8066 50.7201)" class="st7" width="2.91" height="10.27"/>
<rect x="124.02" y="114.16" class="st8" width="2.91" height="10.27"/>
<rect x="109.19" y="85.07" transform="matrix(-0.7661 0.6427 -0.6427 -0.7661 253.3889 88.2135)" class="st9" width="2.91" height="10.27"/>
<rect x="117.35" y="100.82" transform="matrix(0.9662 0.2577 -0.2577 0.9662 31.3129 -27.0345)" class="st10" width="2.91" height="10.27"/>
<rect x="116.37" y="127.03" transform="matrix(0.2548 0.967 -0.967 0.2548 215.6143 -15.4482)" class="st5" width="2.91" height="10.27"/>
<rect x="81.94" y="128.93" transform="matrix(-0.6064 0.7952 -0.7952 -0.6064 240.5767 149.0421)" class="st7" width="2.91" height="10.27"/>
<rect x="91.02" y="140.77" transform="matrix(0.946 0.3241 -0.3241 0.946 52.2804 -22.0975)" class="st2" width="2.91" height="10.27"/>
<rect x="100.91" y="129.28" transform="matrix(-0.5437 0.8393 -0.8393 -0.5437 270.8335 121.5763)" class="st9" width="2.91" height="10.27"/>
</svg>
